<svg id="visual" viewBox="0 0 900 450" width="900" height="450" xmlns="http://www.w3.org/2000/svg" xmlns:xlink="http://www.w3.org/1999/xlink" version="1.1"><rect x="0" y="0" width="900" height="450" fill="#F9FAFB"></rect><defs><linearGradient id="grad1_0" x1="50%" y1="100%" x2="100%" y2="0%"><stop offset="10%" stop-color="#e3bc9a" stop-opacity="1"></stop><stop offset="90%" stop-color="#e3bc9a" stop-opacity="1"></stop></linearGradient></defs><defs><linearGradient id="grad1_1" x1="50%" y1="100%" x2="100%" y2="0%"><stop offset="10%" stop-color="#e3bc9a" stop-opacity="1"></stop><stop offset="90%" stop-color="#f6cbd0" stop-opacity="1"></stop></linearGradient></defs><defs><linearGradient id="grad1_2" x1="50%" y1="100%" x2="100%" y2="0%"><stop offset="10%" stop-color="#ede4f3" stop-opacity="1"></stop><stop offset="90%" stop-color="#f6cbd0" stop-opacity="1"></stop></linearGradient></defs><defs><linearGradient id="grad1_3" x1="50%" y1="100%" x2="100%" y2="0%"><stop offset="10%" stop-color="#ede4f3" stop-opacity="1"></stop><stop offset="90%" stop-color="#f9fafb" stop-opacity="1"></stop></linearGradient></defs><defs><linearGradient id="grad2_0" x1="0%" y1="100%" x2="50%" y2="0%"><stop offset="10%" stop-color="#e3bc9a" stop-opacity="1"></stop><stop offset="90%" stop-color="#e3bc9a" stop-opacity="1"></stop></linearGradient></defs><defs><linearGradient id="grad2_1" x1="0%" y1="100%" x2="50%" y2="0%"><stop offset="10%" stop-color="#f6cbd0" stop-opacity="1"></stop><stop offset="90%" stop-color="#e3bc9a" stop-opacity="1"></stop></linearGradient></defs><defs><linearGradient id="grad2_2" x1="0%" y1="100%" x2="50%" y2="0%"><stop offset="10%" stop-color="#f6cbd0" stop-opacity="1"></stop><stop offset="90%" stop-color="#ede4f3" stop-opacity="1"></stop></linearGradient></defs><defs><linearGradient id="grad2_3" x1="0%" y1="100%" x2="50%" y2="0%"><stop offset="10%" stop-color="#f9fafb" stop-opacity="1"></stop><stop offset="90%" stop-color="#ede4f3" stop-opacity="1"></stop></linearGradient></defs><g transform="translate(900, 450)"><path d="M-405 0C-387.8 -52.4 -370.5 -104.7 -340.9 -141.2C-311.3 -177.7 -269.3 -198.3 -239.7 -239.7C-210.1 -281.1 -192.9 -343.2 -155 -374.2C-117.1 -405.2 -58.5 -405.1 0 -405L0 0Z" fill="#eff0f9"></path><path d="M-303.7 0C-290.8 -39.3 -277.9 -78.5 -255.7 -105.9C-233.5 -133.3 -202 -148.8 -179.8 -179.8C-157.6 -210.8 -144.7 -257.4 -116.2 -280.6C-87.8 -303.9 -43.9 -303.8 0 -303.7L0 0Z" fill="#f2d7e6"></path><path d="M-202.5 0C-193.9 -26.2 -185.3 -52.4 -170.5 -70.6C-155.7 -88.9 -134.7 -99.2 -119.9 -119.9C-105.1 -140.5 -96.4 -171.6 -77.5 -187.1C-58.5 -202.6 -29.3 -202.5 0 -202.5L0 0Z" fill="#f2c1b5"></path><path d="M-101.2 0C-96.9 -13.1 -92.6 -26.2 -85.2 -35.3C-77.8 -44.4 -67.3 -49.6 -59.9 -59.9C-52.5 -70.3 -48.2 -85.8 -38.7 -93.5C-29.3 -101.3 -14.6 -101.3 0 -101.2L0 0Z" fill="#e3bc9a"></path></g><g transform="translate(0, 0)"><path d="M405 0C385.2 50.3 365.3 100.7 339.1 140.4C312.8 180.2 280.2 209.5 251 251C221.9 292.6 196.2 346.5 155 374.2C113.7 401.9 56.9 403.4 0 405L0 0Z" fill="#eff0f9"></path><path d="M303.8 0C288.9 37.7 274 75.5 254.3 105.3C234.6 135.2 210.1 157.1 188.3 188.3C166.4 219.4 147.2 259.8 116.2 280.6C85.3 301.4 42.7 302.6 0 303.8L0 0Z" fill="#f2d7e6"></path><path d="M202.5 0C192.6 25.2 182.7 50.3 169.5 70.2C156.4 90.1 140.1 104.7 125.5 125.5C110.9 146.3 98.1 173.2 77.5 187.1C56.9 200.9 28.4 201.7 0 202.5L0 0Z" fill="#f2c1b5"></path><path d="M101.3 0C96.3 12.6 91.3 25.2 84.8 35.1C78.2 45.1 70 52.4 62.8 62.8C55.5 73.1 49.1 86.6 38.7 93.5C28.4 100.5 14.2 100.9 0 101.3L0 0Z" fill="#e3bc9a"></path></g></svg>